<svg width="112" height="30" fill="none" xmlns="http://www.w3.org/2000/svg"><path d="M15.81 22l-1.56-5.1h-7.8L4.89 22H0L7.56.49h5.55L20.7 22h-4.89zm-4.2-13.89c-.1-.34-.23-.77-.39-1.29s-.32-1.05-.48-1.59c-.16-.54-.29-1.01-.39-1.41-.1.4-.24.9-.42 1.5-.16.58-.32 1.14-.48 1.68-.14.52-.25.89-.33 1.11l-1.53 4.98h5.58l-1.56-4.98zm25.963 1.8c0 .88-.28 1.63-.84 2.25-.54.62-1.35 1.02-2.43 1.2v.12c1.14.14 2.05.53 2.73 1.17.7.64 1.05 1.46 1.05 2.46 0 .94-.25 1.78-.75 2.52-.48.74-1.25 1.32-2.31 1.74-1.06.42-2.45.63-4.17.63h-7.8V5.62h7.8c1.28 0 2.42.14 3.42.42 1.02.26 1.82.7 2.4 1.32.6.62.9 1.47.9 2.55zm-4.53.36c0-1-.79-1.5-2.37-1.5h-3.15v3.24h2.64c.94 0 1.65-.13 2.13-.39.5-.28.75-.73.75-1.35zm.42 6.6c0-.64-.25-1.1-.75-1.38-.5-.3-1.25-.45-2.25-.45h-2.94v3.87h3.03c.84 0 1.53-.15 2.07-.45.56-.32.84-.85.84-1.59zM51.04 5.32c1.84 0 3.33.72 4.47 2.16 1.14 1.42 1.71 3.52 1.71 6.3s-.59 4.9-1.77 6.36c-1.18 1.44-2.69 2.16-4.53 2.16-1.18 0-2.12-.21-2.82-.63-.7-.44-1.27-.93-1.71-1.47h-.24c.16.84.24 1.64.24 2.4v6.6h-4.47V5.62h3.63l.63 2.13h.21c.44-.66 1.03-1.23 1.77-1.71s1.7-.72 2.88-.72zM49.6 8.89c-1.16 0-1.98.36-2.46 1.08-.46.72-.71 1.82-.75 3.3v.48c0 1.58.23 2.8.69 3.66.48.84 1.34 1.26 2.58 1.26 1.02 0 1.77-.42 2.25-1.26.5-.86.75-2.09.75-3.69 0-3.22-1.02-4.83-3.06-4.83zm26.184 4.89c0 2.72-.72 4.82-2.16 6.3-1.42 1.48-3.36 2.22-5.82 2.22-1.52 0-2.88-.33-4.08-.99-1.18-.66-2.11-1.62-2.79-2.88-.68-1.28-1.02-2.83-1.02-4.65 0-2.72.71-4.81 2.13-6.27s3.37-2.19 5.85-2.19c1.54 0 2.9.33 4.08.99 1.18.66 2.11 1.62 2.79 2.88.68 1.24 1.02 2.77 1.02 4.59zm-11.31 0c0 1.62.26 2.85.78 3.69.54.82 1.41 1.23 2.61 1.23 1.18 0 2.03-.41 2.55-1.23.54-.84.81-2.07.81-3.69s-.27-2.83-.81-3.63c-.52-.82-1.38-1.23-2.58-1.23-1.18 0-2.04.41-2.58 1.23-.52.8-.78 2.01-.78 3.63zM88.6 5.32c1.84 0 3.33.72 4.47 2.16 1.14 1.42 1.71 3.52 1.71 6.3s-.59 4.9-1.77 6.36c-1.18 1.44-2.69 2.16-4.53 2.16-1.18 0-2.12-.21-2.82-.63-.7-.44-1.27-.93-1.71-1.47h-.24c.16.84.24 1.64.24 2.4v6.6h-4.47V5.62h3.63l.63 2.13h.21c.44-.66 1.03-1.23 1.77-1.71s1.7-.72 2.88-.72zm-1.44 3.57c-1.16 0-1.98.36-2.46 1.08-.46.72-.71 1.82-.75 3.3v.48c0 1.58.23 2.8.69 3.66.48.84 1.34 1.26 2.58 1.26 1.02 0 1.77-.42 2.25-1.26.5-.86.75-2.09.75-3.69 0-3.22-1.02-4.83-3.06-4.83zm18.024-3.6c2.2 0 3.88.48 5.04 1.44 1.18.94 1.77 2.39 1.77 4.35V22h-3.12l-.87-2.22h-.12c-.7.88-1.44 1.52-2.22 1.92-.78.4-1.85.6-3.21.6-1.46 0-2.67-.42-3.63-1.26-.96-.86-1.44-2.17-1.44-3.93 0-1.74.61-3.02 1.83-3.84 1.22-.84 3.05-1.3 5.49-1.38l2.85-.09v-.72c0-.86-.23-1.49-.69-1.89-.44-.4-1.06-.6-1.86-.6s-1.58.12-2.34.36c-.76.22-1.52.5-2.28.84l-1.47-3.03c.88-.46 1.85-.82 2.91-1.08 1.08-.26 2.2-.39 3.36-.39zm.63 9.18c-1.44.04-2.44.3-3 .78-.56.48-.84 1.11-.84 1.89 0 .68.2 1.17.6 1.47.4.28.92.42 1.56.42.96 0 1.77-.28 2.43-.84.66-.58.99-1.39.99-2.43v-1.35l-1.74.06z" fill="#B31918"/></svg>